<svg width="18" height="12" viewBox="0 0 18 12" fill="none" xmlns="http://www.w3.org/2000/svg">
<path d="M1.81929 3.67236C1.60086 3.67236 1.32345 4.32663 1.59649 4.54468C1.86953 4.76274 2.47459 4.54468 2.69302 4.54468C2.69302 4.48537 2.69695 4.40949 2.69695 4.32663H3.12988V3.89042H2.6288C2.59473 3.80747 2.54449 3.73181 2.47022 3.67236H1.81929Z" fill="url(#paint0_linear)" stroke="black" stroke-width="0.25"/>
<path d="M1.53491 7.88965H2.3338C2.57583 7.88965 2.7707 8.0843 2.7707 8.32584V11.3841C2.7707 11.6256 2.57583 11.8203 2.3338 11.8203H1.53491C1.29289 11.8203 1.12012 11.6245 1.09805 11.3841C0.901268 8.76476 1.05417 8.52485 1.09805 8.32584C1.15009 8.08975 1.29289 7.88965 1.53491 7.88965V7.88965Z" fill="black" stroke="#666666" stroke-width="0.25"/>
<path d="M4.98527 1.28311C8.32738 0.78158 13.0559 1.05342 13.286 1.28311C13.5161 1.51281 15.2636 3.88822 15.0335 4.11788C14.8034 4.34759 3.24977 4.34759 3.01968 4.11788C2.78953 3.88822 4.7554 1.51282 4.98549 1.28311H4.98527Z" fill="#F6AE2D" stroke="black" stroke-width="0.25"/>
<path d="M5.22048 1.56924C5.4389 1.33304 12.8658 1.33304 13.0839 1.56924C13.3026 1.80544 15.0501 4.16737 14.8314 4.40357C14.6128 4.63977 3.45608 4.58072 3.23744 4.34452C3.01929 4.10832 5.00206 1.80544 5.22053 1.56924H5.22048Z" fill="url(#paint1_linear)" stroke="black" stroke-width="0.25"/>
<path d="M1.63574 6.88745L5.34905 7.10555L5.56748 8.63222L5.78595 9.72216L1.63574 9.28597V6.88745Z" fill="#F6AE2D"/>
<path d="M2.94728 4.05273C2.94728 4.05273 3.9961 4.28064 5.467 4.33588L5.20485 7.17037L1.70996 6.95282C1.70996 6.95282 1.70996 6.08032 1.92844 5.64418C1.92844 5.2081 2.94728 4.05273 2.94728 4.05273V4.05273Z" fill="url(#paint2_linear)"/>
<path d="M1.85901 5.91075C1.85901 5.91075 1.49155 5.86268 1.27312 6.29881C1.05469 6.73479 1.05469 7.38908 1.05469 7.38908V8.47956L1.70996 9.1333V6.95288L1.85901 5.91075Z" fill="#F6AE2D"/>
<path d="M16.4455 7.88965H15.6467C15.4046 7.88965 15.21 8.0843 15.21 8.32584V11.3841C15.21 11.6256 15.4046 11.8203 15.6467 11.8203H16.4455C16.6876 11.8203 16.8604 11.6245 16.8822 11.3841C17.079 8.76476 16.9264 8.52485 16.8822 8.32584C16.8304 8.08975 16.6876 7.88965 16.4455 7.88965Z" fill="black" stroke="#666666" stroke-width="0.25"/>
<path d="M16.3448 6.95288L12.8498 7.17098L12.4131 8.69765V9.56949L16.3448 9.1333V6.95288Z" fill="#F6AE2D"/>
<path d="M16.126 5.64453L16.3446 6.95278L16.3297 9.14091L17 8.47946V7.38897C17 7.38897 17 6.73469 16.7814 6.29871C16.5633 5.86257 16.126 5.64453 16.126 5.64453Z" fill="#F6AE2D"/>
<path d="M5.2041 7.1709L5.47171 8.64414L5.64095 9.56941H12.4123L12.6309 8.69757H12.5704V8.69485L12.849 7.1709H5.20421H5.2041Z" fill="#F6AE2D"/>
<path d="M5.42274 4.35669H12.6308L12.9367 7.19123H5.2041L5.42258 4.35669H5.42274Z" fill="url(#paint3_linear)"/>
<path d="M15.6846 3.73779C15.6104 3.7971 15.5601 3.87299 15.5265 3.95585H15.0254V4.39197H15.4579C15.4579 4.47483 15.4623 4.55071 15.4623 4.61003C15.6807 4.61003 16.2853 4.82808 16.5583 4.61003C16.8314 4.39197 16.5544 3.73779 16.336 3.73779H15.6846V3.73779Z" fill="url(#paint4_linear)" stroke="black" stroke-width="0.25"/>
<path d="M15.0337 4.13843C15.0337 4.13843 14.1019 4.30124 12.6309 4.35647L12.849 7.19101L16.344 6.97292C16.3772 6.84206 16.2125 5.97224 16.1259 5.66483C15.9072 4.79261 15.0337 4.13843 15.0337 4.13843Z" fill="url(#paint5_linear)"/>
<path fill-rule="evenodd" clip-rule="evenodd" d="M1.94682 9.0481L1.92773 9.71983C1.92773 9.71983 9.33647 10.3752 16.5587 9.71983L16.5391 9.0481C9.3441 9.70075 1.94627 9.0481 1.94627 9.0481H1.94682Z" fill="#F6AE2D"/>
<path d="M1.05469 8.47949L1.27312 9.61468C1.27312 9.61468 1.70757 10.3388 1.89562 10.4434C2.09223 10.5525 5.28952 10.9227 5.6417 10.9227C5.6417 10.9227 9.79207 11.0318 12.413 10.9227C15.034 10.8137 15.8999 10.5776 16.1261 10.4871C16.3448 10.3998 16.7815 9.61468 16.7815 9.61468L17.0002 8.47949L16.3859 9.08493L16.3448 9.09289L12.4365 9.54762L5.68041 9.55416L1.70996 9.13324L1.05469 8.47949Z" fill="url(#paint6_linear)"/>
<path d="M5.85943 6.78052H12.194L11.9754 7.21617H6.07807L5.85938 6.78052H5.85943Z" fill="url(#paint7_linear)" stroke="#4D4D4D" stroke-width="0.25"/>
<path d="M14.8145 4.11792C14.8145 4.11792 15.2512 4.55406 15.2512 5.86242L12.6302 6.73486H5.42214L2.80078 5.86242C2.80078 4.55406 3.23763 4.11792 3.23763 4.11792" stroke="black" stroke-width="0.25"/>
<path fill-rule="evenodd" clip-rule="evenodd" d="M12.6309 6.73474C12.6309 7.38849 13.5043 7.17039 15.4705 6.95284C15.9072 6.08035 15.2518 5.8623 15.2518 5.8623L12.6309 6.73474V6.73474Z" fill="url(#paint8_linear)"/>
<path d="M13.7192 6.37378L12.6396 6.73206C12.7029 6.97469 12.9259 7.15353 13.1925 7.15353C13.5077 7.15353 13.7645 6.90163 13.7645 6.59193C13.7645 6.51451 13.7481 6.4409 13.7192 6.37378V6.37378Z" fill="url(#paint9_radial)" stroke="#5F8DD3" stroke-width="0.25"/>
<path d="M15.1388 5.90088L14.3057 6.17753C14.2637 6.25997 14.2402 6.3531 14.2402 6.4513C14.2402 6.73373 14.4343 6.97146 14.6988 7.04289C14.8449 7.02544 15.0052 7.00745 15.1671 6.98836C15.3591 6.88368 15.4894 6.68248 15.4894 6.4513C15.4894 6.20965 15.3454 6.00082 15.1388 5.90088Z" fill="url(#paint10_radial)"/>
<path d="M12.6309 6.73474C12.6309 7.38849 14.3565 7.21401 15.4705 6.95284C15.9072 6.08035 15.2518 5.8623 15.2518 5.8623C14.8151 5.8623 12.6309 6.73474 12.6309 6.73474V6.73474Z" stroke="black" stroke-width="0.25"/>
<path d="M14.2762 6.80554C14.2762 6.95493 14.1529 7.07598 14.0014 7.07598C13.8492 7.07598 13.7266 6.95493 13.7266 6.80554C13.7266 6.65669 13.8492 6.53564 14.0014 6.53564C14.1529 6.53564 14.2762 6.65669 14.2762 6.80554Z" fill="url(#paint11_radial)" stroke="#5F8DD3" stroke-width="0.25"/>
<path d="M15.0369 6.39692C15.0369 6.49342 14.9661 6.57139 14.8788 6.57139C14.7916 6.57139 14.7207 6.49342 14.7207 6.39692C14.7207 6.30079 14.7916 6.22266 14.8788 6.22266C14.9661 6.22266 15.0369 6.30079 15.0369 6.39692Z" fill="#ECECEC"/>
<path d="M15.1457 6.59465C15.1457 6.66771 15.1212 6.72715 15.0912 6.72715C15.0607 6.72715 15.0361 6.66771 15.0361 6.59465C15.0361 6.52159 15.0607 6.46216 15.0912 6.46216C15.1212 6.46216 15.1457 6.52159 15.1457 6.59465Z" fill="#ECECEC"/>
<path d="M14.4949 6.63277C14.5315 6.69602 14.5396 6.75981 14.5135 6.77453C14.4873 6.7898 14.4366 6.75054 14.4001 6.68729C14.3635 6.62405 14.3553 6.56025 14.3815 6.54553C14.4071 6.53026 14.4584 6.56952 14.4949 6.63277Z" fill="#ECECEC"/>
<path d="M14.6403 8.60164C14.6888 8.65616 14.7106 8.71614 14.6883 8.73631C14.6659 8.75649 14.6081 8.72923 14.559 8.6747C14.51 8.62018 14.4882 8.5602 14.5111 8.54003C14.5334 8.51985 14.5912 8.54766 14.6403 8.60164Z" fill="#ECECEC"/>
<path fill-rule="evenodd" clip-rule="evenodd" d="M5.41992 6.75627C5.41992 7.41044 4.54619 7.19238 2.58031 6.97432C2.14345 6.10209 2.79874 5.88403 2.79874 5.88403L5.41992 6.75627Z" fill="url(#paint12_linear)"/>
<path d="M4.33164 6.39575L5.41113 6.75424C5.34779 6.99628 5.12455 7.17509 4.8585 7.17509C4.54309 7.17509 4.28665 6.92389 4.28665 6.61381C4.28665 6.53618 4.30237 6.46291 4.33164 6.39575Z" fill="url(#paint13_radial)" stroke="#5F8DD3" stroke-width="0.25"/>
<path d="M2.91236 5.92285L3.74502 6.19935C3.78696 6.28178 3.81055 6.37467 3.81055 6.47323C3.81055 6.75583 3.61614 6.99352 3.35184 7.0646C3.20636 7.04716 3.0456 7.02928 2.88352 7.01009C2.69174 6.90542 2.56155 6.70394 2.56155 6.47323C2.56155 6.23119 2.70528 6.02272 2.91236 5.92285V5.92285Z" fill="url(#paint14_radial)"/>
<path d="M5.41992 6.75627C5.41992 7.41044 3.69431 7.23599 2.58031 6.97432C2.14345 6.10209 2.79874 5.88403 2.79874 5.88403C3.30113 5.88403 4.89569 6.60363 5.41992 6.75627Z" stroke="black" stroke-width="0.25"/>
<path d="M3.77443 6.82751C3.77443 6.9767 3.8975 7.09765 4.04932 7.09765C4.20115 7.09765 4.32422 6.9767 4.32422 6.82751C4.32422 6.67832 4.20115 6.55737 4.04932 6.55737C3.8975 6.55737 3.77443 6.67832 3.77443 6.82751Z" fill="url(#paint15_radial)" stroke="#5F8DD3" stroke-width="0.314838"/>
<path d="M3.01335 6.41859C3.01335 6.51497 3.08418 6.59303 3.17171 6.59303C3.25925 6.59303 3.33008 6.51497 3.33008 6.41859C3.33008 6.32221 3.25925 6.24414 3.17171 6.24414C3.08418 6.24414 3.01335 6.32221 3.01335 6.41859Z" fill="#ECECEC"/>
<path d="M2.90543 6.61647C2.90543 6.68959 2.92986 6.74881 2.96004 6.74881C2.99022 6.74881 3.01465 6.68959 3.01465 6.61647C3.01465 6.54335 2.99022 6.48413 2.96004 6.48413C2.92986 6.48413 2.90543 6.54335 2.90543 6.61647Z" fill="#ECECEC"/>
<path d="M3.557 6.65457C3.52047 6.71795 3.51206 6.78144 3.53822 6.79647C3.56438 6.81149 3.61514 6.77232 3.65166 6.70895C3.68819 6.64557 3.6966 6.58208 3.67044 6.56705C3.64428 6.55202 3.59352 6.5912 3.557 6.65457Z" fill="#ECECEC"/>
<path d="M3.41021 6.62356C3.36121 6.6779 3.33968 6.73823 3.36211 6.75839C3.38454 6.77855 3.44238 6.75085 3.49139 6.6965C3.54039 6.64216 3.56193 6.58183 3.53949 6.56167C3.51706 6.54151 3.45922 6.56921 3.41021 6.62356Z" fill="#ECECEC"/>
<path fill-rule="evenodd" clip-rule="evenodd" d="M1.94682 7.06104L1.92773 7.73332C1.92773 7.73332 9.33647 8.3887 16.5587 7.73332L16.5391 7.06104C9.3441 7.71423 1.94627 7.06104 1.94627 7.06104H1.94682Z" fill="#F6AE2D"/>
<path d="M2.94685 4.05273C2.94685 4.05273 1.92839 5.20843 1.92839 5.64457C1.92839 6.0807 1.49155 5.86261 1.27312 6.29875C1.05469 6.73472 1.05469 7.38901 1.05469 7.38901V8.47949L1.27312 9.61468C1.27312 9.61468 1.70757 10.3388 1.89562 10.4434C2.09223 10.5525 5.28952 10.9227 5.6417 10.9227C5.6417 10.9227 9.79207 11.0318 12.413 10.9227C15.034 10.8137 15.8999 10.5776 16.1261 10.4871C16.3448 10.3998 16.7815 9.61468 16.7815 9.61468L17.0002 8.47949V7.38901C17.0002 7.38901 17.0002 6.73472 16.7815 6.29875C16.5634 5.86261 16.1261 5.64457 16.1261 5.64457C15.908 4.77234 15.034 4.11816 15.034 4.11816C15.034 4.11816 14.1022 4.28097 12.6317 4.33621H5.46722C3.9961 4.28097 2.94684 4.05273 2.94684 4.05273H2.94685Z" stroke="black" stroke-width="0.25"/>
<path d="M11.2844 9.56519H6.70996C6.52928 9.56519 6.38281 9.71165 6.38281 9.89233V10.5692C6.38281 10.7499 6.52928 10.8963 6.70996 10.8963H11.2844C11.4651 10.8963 11.6116 10.7499 11.6116 10.5692V9.89233C11.6116 9.71165 11.4651 9.56519 11.2844 9.56519Z" fill="#E6E6E6"/>
<path d="M6.49345 9.58203C6.4471 9.61747 6.41057 9.68399 6.39258 9.76578V10.7009C6.41112 10.787 6.45037 10.8557 6.50054 10.8895H7.05177V9.58203H6.49345V9.58203Z" fill="#2A7FFF"/>
<path d="M11.2844 9.56519H6.70996C6.52928 9.56519 6.38281 9.71165 6.38281 9.89233V10.5692C6.38281 10.7499 6.52928 10.8963 6.70996 10.8963H11.2844C11.4651 10.8963 11.6116 10.7499 11.6116 10.5692V9.89233C11.6116 9.71165 11.4651 9.56519 11.2844 9.56519Z" stroke="#4D4D4D" stroke-width="0.24"/>
<path fill-rule="evenodd" clip-rule="evenodd" d="M1.94682 7.72339L1.92773 8.39567C1.92773 8.39567 9.33647 9.05105 16.5587 8.39567L16.5391 7.72339C9.3441 8.37659 1.94627 7.72339 1.94627 7.72339H1.94682Z" fill="#F6AE2D"/>
<path fill-rule="evenodd" clip-rule="evenodd" d="M1.94744 8.53516L1.91504 9.12235C1.91504 9.12235 9.05159 9.70304 16.2739 9.04766L16.5397 8.53516C9.34472 9.18781 1.94689 8.53516 1.94689 8.53516H1.94744Z" fill="#F6AE2D"/>
<defs>
<linearGradient id="paint0_linear" x1="2.28324" y1="4.35787" x2="2.06548" y2="3.70352" gradientUnits="userSpaceOnUse">
<stop/>
<stop offset="1" stop-color="#727272"/>
</linearGradient>
<linearGradient id="paint1_linear" x1="5.18663" y1="1.01049" x2="8.18523" y2="2.97771" gradientUnits="userSpaceOnUse">
<stop stop-color="#141414"/>
<stop offset="0.39064" stop-color="#B1B1B1"/>
<stop offset="0.54963" stop-color="#3C3C3C"/>
<stop offset="0.72361" stop-color="#B1B1B1"/>
<stop offset="1" stop-color="#404040"/>
</linearGradient>
<linearGradient id="paint2_linear" x1="3.58848" y1="4.05273" x2="3.58848" y2="7.17037" gradientUnits="userSpaceOnUse">
<stop stop-color="#FFDB9B"/>
<stop offset="1" stop-color="#F6AE2D"/>
</linearGradient>
<linearGradient id="paint3_linear" x1="9.07041" y1="4.35669" x2="9.07041" y2="7.19123" gradientUnits="userSpaceOnUse">
<stop stop-color="#FFDB9B"/>
<stop offset="1" stop-color="#F6AE2D"/>
</linearGradient>
<linearGradient id="paint4_linear" x1="16.0436" y1="4.5447" x2="16.2614" y2="3.89021" gradientUnits="userSpaceOnUse">
<stop/>
<stop offset="1" stop-color="#727272"/>
</linearGradient>
<linearGradient id="paint5_linear" x1="14.4896" y1="4.13843" x2="14.4896" y2="7.19101" gradientUnits="userSpaceOnUse">
<stop stop-color="#FFDB9B"/>
<stop offset="1" stop-color="#F6AE2D"/>
</linearGradient>
<linearGradient id="paint6_linear" x1="1.05469" y1="9.7013" x2="17.0003" y2="9.7013" gradientUnits="userSpaceOnUse">
<stop stop-color="#1D1D1D"/>
<stop offset="0.50822" stop-color="#808080"/>
<stop offset="1" stop-color="#1D1D1D"/>
</linearGradient>
<linearGradient id="paint7_linear" x1="8.62576" y1="6.66942" x2="8.62576" y2="7.10553" gradientUnits="userSpaceOnUse">
<stop stop-color="#666666"/>
<stop offset="1" stop-color="#3C3C3C"/>
</linearGradient>
<linearGradient id="paint8_linear" x1="14.1259" y1="6.99609" x2="14.0049" y2="6.16741" gradientUnits="userSpaceOnUse">
<stop stop-color="#5F8DD3"/>
<stop offset="0.47129" stop-color="#D5E5FF"/>
<stop offset="1" stop-color="#5F8DD3"/>
</linearGradient>
<radialGradient id="paint9_radial" cx="0" cy="0" r="1" gradientUnits="userSpaceOnUse" gradientTransform="translate(13.202 6.76367) scale(0.58033 0.407613)">
<stop stop-color="#E6E6E6"/>
<stop offset="0.5" stop-color="#B7C6DE"/>
<stop offset="1" stop-color="#213756"/>
</radialGradient>
<radialGradient id="paint10_radial" cx="0" cy="0" r="1" gradientUnits="userSpaceOnUse" gradientTransform="translate(14.8651 6.47197) scale(0.644111 0.590539)">
<stop stop-color="#E6E6E6"/>
<stop offset="0.5" stop-color="#B7C6DE"/>
<stop offset="1" stop-color="#213756"/>
</radialGradient>
<radialGradient id="paint11_radial" cx="0" cy="0" r="1" gradientUnits="userSpaceOnUse" gradientTransform="translate(14.0013 6.80584) scale(0.283488 0.27872)">
<stop stop-color="#E6E6E6"/>
<stop offset="0.5" stop-color="#B7C6DE"/>
<stop offset="1" stop-color="#213756"/>
</radialGradient>
<linearGradient id="paint12_linear" x1="3.92498" y1="7.01794" x2="4.04602" y2="6.18926" gradientUnits="userSpaceOnUse">
<stop stop-color="#5F8DD3"/>
<stop offset="0.47129" stop-color="#D5E5FF"/>
<stop offset="1" stop-color="#5F8DD3"/>
</linearGradient>
<radialGradient id="paint13_radial" cx="0" cy="0" r="1" gradientUnits="userSpaceOnUse" gradientTransform="translate(4.84889 6.78562) rotate(180) scale(0.580329 0.407616)">
<stop stop-color="#E6E6E6"/>
<stop offset="0.5" stop-color="#B7C6DE"/>
<stop offset="1" stop-color="#213756"/>
</radialGradient>
<radialGradient id="paint14_radial" cx="0" cy="0" r="1" gradientUnits="userSpaceOnUse" gradientTransform="translate(3.18583 6.49374) rotate(180) scale(0.644111 0.59054)">
<stop stop-color="#E6E6E6"/>
<stop offset="0.5" stop-color="#B7C6DE"/>
<stop offset="1" stop-color="#213756"/>
</radialGradient>
<radialGradient id="paint15_radial" cx="0" cy="0" r="1" gradientUnits="userSpaceOnUse" gradientTransform="translate(4.04932 6.82751) rotate(180) scale(0.283486 0.278714)">
<stop stop-color="#E6E6E6"/>
<stop offset="0.5" stop-color="#B7C6DE"/>
<stop offset="1" stop-color="#213756"/>
</radialGradient>
</defs>
</svg>
